<?xml version="1.0" encoding="utf-8"?>
<!-- Generator: Adobe Illustrator 19.2.1, SVG Export Plug-In . SVG Version: 6.00 Build 0)  -->
<svg version="1.1" xmlns="http://www.w3.org/2000/svg" xmlns:xlink="http://www.w3.org/1999/xlink" x="0px" y="0px"
	 viewBox="-47 170.9 500 500" style="enable-background:new -47 170.9 500 500;" xml:space="preserve">
<style type="text/css">
	.st0{fill:#FFC83B;}
	.st1{fill:#FFFFFF;}
</style>
<g id="background">
	<path id="background_1_" class="st0" d="M453.1,238.5c0-37.3-30.2-67.6-67.6-67.6H20.6c-37.3,0-67.7,30.2-67.7,67.6v364.8
		c0,37.3,30.2,67.6,67.6,67.6h364.8c37.3,0,67.6-30.2,67.6-67.6V238.5H453.1z"/>
</g>
<g id="icon">
	<path id="settings" class="st1" d="M367.7,449.7l-13.5-14.5c0-0.1,0-0.3,0-0.4c0.3-3.2,0.5-6.5,0.6-9.7c0-0.9,0-1.9,0-2.9
		c0-2.5,0-4.9-0.1-7.3c0-1.1-0.1-2-0.2-3.1c-0.1-1.6-0.1-3.2-0.3-4.9l13.5-14.4c6.4-6.9,18.1-16,14.6-24.7L367.5,332
		c-3.6-8.7-18.3-6.9-27.7-7.2l-19.7-0.7c-1.5-1.8-3.1-3.5-4.6-5.2c-0.1-0.1-0.1-0.2-0.2-0.3c-0.5-0.6-1-1.2-1.6-1.8
		c-0.8-0.9-1.8-1.8-2.7-2.7c-1.2-1.3-2.5-2.5-3.8-3.8c-2.1-2-4.3-3.9-6.5-5.8c-0.1-0.1-0.2-0.2-0.3-0.2c-0.1-0.1-0.2-0.2-0.3-0.4
		l-0.6-19.8c-0.3-9.4,1.5-24.1-7.1-27.7l-35.9-14.9c-8.6-3.6-17.8,8.1-24.7,14.5l-14.5,13.5c-3.2-0.3-6.5-0.5-9.7-0.6
		c-0.9,0-1.8,0-2.8,0c-2.1,0-4.2-0.1-6.3,0c-2.7,0.1-5.4,0.3-8.1,0.5c-0.3,0-0.7,0-1,0c-0.2,0-0.3,0-0.5,0l-14.4-13.5
		c-6.9-6.4-16-18.1-24.7-14.6l-35.9,14.8c-8.7,3.6-6.8,18.3-7.2,27.7l-0.7,19.8c-0.2,0.2-0.4,0.4-0.6,0.6c-2.4,2-4.7,4-6.9,6.1
		c-0.8,0.8-1.6,1.6-2.4,2.5c-1.6,1.6-3.2,3.2-4.7,4.8c-0.8,0.9-1.5,1.7-2.3,2.6c-1,1.1-2.1,2.2-3,3.4l-19.8,0.6
		c-9.4,0.3-24.1-1.5-27.7,7.1l-14.9,35.9c-3.6,8.6,8.1,17.8,14.5,24.6l13.5,14.5c-0.2,2.2-0.3,4.5-0.4,6.7c0,0.2,0,0.4,0,0.6
		c-0.2,3.8-0.3,7.7-0.1,11.5c0.1,1.7,0.2,3.3,0.3,5c0.1,1.4,0.1,2.7,0.3,4.1c0,0.1,0,0.3,0,0.4l-13.5,14.4
		c-6.4,6.8-18.2,15.9-14.6,24.6l14.8,35.9c3.6,8.7,18.3,6.9,27.7,7.2l19.7,0.7c0.1,0.2,0.3,0.3,0.4,0.5c2,2.4,4.1,4.7,6.3,7.1
		c0.8,0.8,1.6,1.5,2.4,2.4c1.6,1.6,3.2,3.2,4.9,4.8c0.8,0.7,1.7,1.5,2.5,2.2c1.2,1,2.3,2.1,3.5,3l0.6,19.8
		c0.3,9.4-1.5,24.1,7.1,27.7l35.9,14.9c8.6,3.6,17.8-8.1,24.6-14.5l14.5-13.5c0.2,0,0.3,0,0.5,0c1.9,0.2,3.7,0.3,5.6,0.4
		c0.6,0,1.1,0.1,1.6,0.1c0.9,0,1.7,0.1,2.5,0.1c1,0,2,0,3,0c2.4,0.1,4.8,0,7.2-0.1c1,0,2.1-0.1,3.1-0.2c1.6-0.1,3.2-0.2,4.8-0.2
		l14.4,13.5c6.9,6.4,15.9,18.2,24.6,14.6l35.9-14.8c8.7-3.6,6.9-18.3,7.2-27.7l0.7-19.7c1.7-1.4,3.3-2.9,4.9-4.3
		c0.2-0.3,0.5-0.4,0.7-0.6c0.5-0.5,1.1-1,1.6-1.5c1-0.8,1.8-1.8,2.7-2.6c1.2-1.3,2.6-2.5,3.8-3.8c1.8-2,3.7-4,5.5-6.2
		c0.2-0.2,0.4-0.4,0.5-0.6c0.2-0.1,0.2-0.2,0.3-0.3l19.8-0.6c9.4-0.3,24.1,1.5,27.7-7.1l14.9-35.9
		C385.8,465.8,374.1,456.6,367.7,449.7z M282,420.9c0,43.6-35.4,79-79,79s-79-35.4-79-79s35.4-79,79-79S282,377.3,282,420.9z"/>
</g>
</svg>
